<?xml version="1.0" encoding="utf-8"?>
<!-- Generator: Adobe Illustrator 23.1.1, SVG Export Plug-In . SVG Version: 6.00 Build 0)  -->
<svg version="1.1" xmlns="http://www.w3.org/2000/svg" xmlns:xlink="http://www.w3.org/1999/xlink" x="0px" y="0px"
	 viewBox="0 0 679 211.8" style="enable-background:new 0 0 679 211.8;" xml:space="preserve">
<style type="text/css">
	.st0{display:none;}
	.st1{display:inline;}
	.st2{fill:#FFFFFF;}
	.st3{fill:#199BDC;}
	.st4{fill:#2441CC;}
</style>
<g id="Grid">
</g>
<g id="Fonts" class="st0">
</g>
<g id="Logo">
	<g>
		<g>
			<path class="st2" d="M273.4,139.4h-12.6l-9.8-24.7l-8.3-24.9l-8.2,25.1l-9.6,24.5h-12.6l-28.9-78.7H200l18.6,56.8l19.1-56.8h9.7
				l19.7,56.8l18-56.8h16.6L273.4,139.4z"/>
			<path class="st2" d="M344.5,84h13.2v55.5h-12.9l-0.7-8.1c-3.1,6.5-11.8,9.7-18,9.8c-16.4,0.1-28.6-10-28.6-29.5
				c0-19.1,12.7-29.1,28.9-29c7.4,0,14.5,3.5,17.7,9L344.5,84z M311.2,111.7c0,10.6,7.3,16.9,16.4,16.9c21.6,0,21.6-33.6,0-33.6
				C318.5,94.9,311.2,101.1,311.2,111.7z"/>
			<path class="st2" d="M423.2,83.9l-23.6,55.8h-14.8L361,83.9h15l7.6,18.3l8.5,23.4l8.4-23.2l7.6-18.6H423.2z"/>
			<path class="st2" d="M441.5,116.6c0.9,6.9,6.9,11.8,16.5,11.8c5.1,0,11.7-1.9,14.8-5.2l8.8,8.7c-5.8,6.1-15.4,9-23.8,9
				c-19.1,0-30.5-11.8-30.5-29.6c0-16.9,11.5-29,29.5-29c18.6,0,30.1,11.5,28,34.3H441.5z M471.7,105.2c-0.9-7.2-6.5-10.8-14.4-10.8
				c-7.4,0-13.5,3.6-15.5,10.8H471.7z"/>
			<path class="st2" d="M545,79.7c-2.7-4.5-10.1-8.8-18.7-8.8c-11,0-16.3,4.6-16.3,10.5c0,6.9,8.1,8.8,17.5,9.9
				c16.4,2,31.7,6.3,31.7,25.1c0,17.5-15.5,25.1-33.1,25.1c-16.1,0-28.5-4.9-34.3-19.3l12.4-6.4c3.5,8.7,12.6,12.5,22.2,12.5
				c9.3,0,18.1-3.3,18.1-11.8c0-7.4-7.8-10.5-18.2-11.6c-16.1-1.9-30.9-6.2-30.9-23.8c0-16.2,16-22.8,30.5-22.9
				c12.3,0,25,3.5,30.9,15.6L545,79.7z"/>
			<path class="st2" d="M584.7,68.3c0,10.7-16.2,10.7-16.2,0S584.7,57.7,584.7,68.3z M569.8,83.8v55.7h13.7V83.8H569.8z"/>
			<path class="st2" d="M639.4,78.4l10.1,7.6l-6.2,7.9c4.3,4.8,5.8,10.3,5.8,16.4c0,6.9-2.6,16.5-11.7,20.7
				c9.2,4.6,11.5,11.2,11.5,18.3c0,15.3-11.7,24.7-27.8,24.7s-28.1-9.8-28.1-24.7h13.6c0,7.2,6.6,11.9,14.5,11.9
				c7.9,0,14.1-4.3,14.1-11.9c0-7.6-7.2-11.1-14.1-11.1c-17.3,0-28.1-10.6-28.1-27.9c0-17.3,12.6-28.1,28.1-28.1
				c4.4,0,8.9,0.6,12.7,3.1L639.4,78.4z M606.7,110.3c0,9.7,6.5,15.4,14.5,15.4c7.9,0,14.4-5.8,14.4-15.4c0-9.6-6.5-15.6-14.4-15.6
				C613.2,94.7,606.7,100.6,606.7,110.3z"/>
		</g>
		<g>
			<rect x="29.5" y="83.5" class="st3" width="10.7" height="33.3"/>
			<rect x="49.3" y="67.1" class="st3" width="10.7" height="66"/>
			<rect x="69.2" y="79.1" class="st3" width="10.7" height="42.1"/>
			<rect x="89" y="60" class="st3" width="10.7" height="80.2"/>
			<rect x="108.9" y="54.5" class="st3" width="10.7" height="91.4"/>
			<rect x="128.7" y="78.2" class="st3" width="10.7" height="43.9"/>
			<rect x="148.5" y="86.4" class="st3" width="10.7" height="27.5"/>
			<g>
				<polygon class="st2" points="40.2,75.8 40.2,48.6 148.5,48.6 148.5,79 159.3,79 159.3,37.7 29.5,37.7 29.5,75.8 				"/>
				<polygon class="st2" points="148.5,121.3 148.5,151.6 40.2,151.6 40.2,124.5 29.5,124.5 29.5,162.5 159.3,162.5 159.3,121.3 
									"/>
			</g>
		</g>
	</g>
</g>
</svg>
