<?xml version="1.0" encoding="utf-8"?>
<!-- Generator: Adobe Illustrator 23.1.1, SVG Export Plug-In . SVG Version: 6.00 Build 0)  -->
<svg version="1.1" xmlns="http://www.w3.org/2000/svg" xmlns:xlink="http://www.w3.org/1999/xlink" x="0px" y="0px"
	 viewBox="0 0 679 181.3" style="enable-background:new 0 0 679 181.3;" xml:space="preserve">
<style type="text/css">
	.st0{display:none;}
	.st1{display:inline;}
	.st2{fill:#FFFFFF;}
	.st3{fill:#199BDC;}
</style>
<g id="Grid">
</g>
<g id="Fonts" class="st0">
</g>
<g id="Logo">
	<g>
		<g>
			<path class="st2" d="M273,123.4h-12.3l-9.5-24.1L243,75l-8,24.5l-9.3,23.9h-12.3l-28.2-76.8h16.2l18.1,55.4l18.7-55.4h9.4
				l19.2,55.4l17.6-55.4h16.2L273,123.4z"/>
			<path class="st2" d="M342.3,69.3h12.8v54.1h-12.6l-0.7-7.9c-3.1,6.4-11.5,9.4-17.6,9.5c-16,0.1-27.9-9.8-27.9-28.8
				c0-18.7,12.4-28.4,28.2-28.3c7.2,0,14.2,3.4,17.2,8.8L342.3,69.3z M309.8,96.3c0,10.3,7.1,16.5,16,16.5c21.1,0,21.1-32.8,0-32.8
				C317,79.9,309.8,86,309.8,96.3z"/>
			<path class="st2" d="M419.2,69.2l-23,54.4h-14.5l-23.2-54.4h14.6l7.5,17.9l8.3,22.8l8.2-22.6l7.5-18.1H419.2z"/>
			<path class="st2" d="M437.1,101.1c0.9,6.7,6.7,11.5,16.1,11.5c4.9,0,11.4-1.9,14.5-5l8.6,8.5c-5.7,5.9-15,8.8-23.3,8.8
				c-18.7,0-29.7-11.5-29.7-28.9c0-16.5,11.2-28.3,28.8-28.3c18.1,0,29.4,11.2,27.3,33.5H437.1z M466.5,90c-0.9-7-6.4-10.5-14-10.5
				c-7.2,0-13.2,3.5-15.1,10.5H466.5z"/>
			<path class="st2" d="M538,65.1c-2.6-4.4-9.9-8.6-18.2-8.6c-10.8,0-15.9,4.5-15.9,10.2c0,6.7,7.9,8.6,17.1,9.7
				c16,2,31,6.1,31,24.5c0,17.1-15.1,24.5-32.3,24.5c-15.7,0-27.8-4.8-33.5-18.9l12.1-6.3c3.4,8.5,12.3,12.2,21.6,12.2
				c9.1,0,17.7-3.2,17.7-11.5c0-7.2-7.6-10.2-17.8-11.3c-15.7-1.9-30.2-6-30.2-23.3c0-15.8,15.6-22.3,29.7-22.4
				c12,0,24.4,3.4,30.2,15.3L538,65.1z"/>
			<path class="st2" d="M576.8,54c0,10.4-15.8,10.4-15.8,0S576.8,43.6,576.8,54z M562.2,69.1v54.3h13.4V69.1H562.2z"/>
			<path class="st2" d="M630.1,63.8l9.9,7.5l-6,7.7c4.2,4.7,5.7,10.1,5.7,16c0,6.7-2.5,16.1-11.4,20.2c9,4.5,11.2,11,11.2,17.9
				c0,14.9-11.4,24.1-27.1,24.1c-15.7,0-27.4-9.5-27.4-24.1h13.3c0,7,6.5,11.6,14.2,11.6c7.7,0,13.7-4.2,13.7-11.6
				c0-7.5-7-10.9-13.7-10.9c-16.9,0-27.4-10.3-27.4-27.2c0-16.9,12.3-27.4,27.4-27.4c4.3,0,8.7,0.5,12.4,3.1L630.1,63.8z M598.2,95
				c0,9.4,6.4,15,14.2,15c7.7,0,14-5.7,14-15c0-9.3-6.4-15.3-14-15.3C604.6,79.7,598.2,85.5,598.2,95z"/>
		</g>
		<g>
			<path class="st3" d="M137.6,80.5h-6.3c-5.2,0-9.8,3.4-11.3,8.4l-2.9,9.7l-7.3-26.4c-1.3-4.6-5.3-7.7-10-7.7c0,0-0.1,0-0.1,0
				c-4.7,0-8.7,3-10.1,7.5l-8.3,27.7l-8.4-12.3c-2.9-4.3-7.8-6.8-13-6.8H48.2C50.4,54,72.7,33.1,99.9,33.1c24,0,44.2,16.3,50.1,38.5
				h9.2c-6.1-27.1-30.4-47.4-59.4-47.4C66.3,24.1,39,51.4,39,85c0,1.5,0.1,3,0.2,4.5h4.3h14.8h1.6c2.2,0,4.3,1.1,5.6,2.9l8.7,12.7
				c1.6,2.4,4.3,3.8,7.2,3.8c0.5,0,0.9,0,1.4-0.1c3.3-0.5,6-2.9,7-6.1l8.4-28.2c0.3-0.9,1-1.2,1.5-1.1c0.5,0,1.2,0.2,1.5,1.2
				l7.5,27.3c1,3.8,4.4,6.3,8.3,6.4c3.9,0,7.3-2.5,8.4-6.2l3.2-10.6c0.4-1.2,1.4-2,2.7-2h20.3c-2.3,26.5-24.6,47.4-51.7,47.4
				c-24,0-44.2-16.3-50.1-38.5h-9.2c6.1,27.1,30.4,47.4,59.4,47.4c33.6,0,60.9-27.3,60.9-60.9c0-1.5-0.1-3-0.2-4.5h-4.3H137.6z"/>
		</g>
	</g>
</g>
</svg>
